<?xml version="1.0" encoding="UTF-8" standalone="no"?>
<svg
   xmlns:dc="http://purl.org/dc/elements/1.1/"
   xmlns:cc="http://creativecommons.org/ns#"
   xmlns:rdf="http://www.w3.org/1999/02/22-rdf-syntax-ns#"
   xmlns:svg="http://www.w3.org/2000/svg"
   xmlns="http://www.w3.org/2000/svg"
   xmlns:sodipodi="http://sodipodi.sourceforge.net/DTD/sodipodi-0.dtd"
   xmlns:inkscape="http://www.inkscape.org/namespaces/inkscape"
   viewBox="0 0 1058.9878 672.00002"
   id="svg24"
   height="672"
   width="1058.9878"
   version="1.1"
   inkscape:version="0.48.4 r9939"
   sodipodi:docname="logo-startup-tocantins.svg"
   inkscape:export-filename="C:\Users\LuizCarvalho\Dropbox\Design\startups\startup-to\square.png"
   inkscape:export-xdpi="101.8677"
   inkscape:export-ydpi="101.8677">
  <sodipodi:namedview
     pagecolor="#ffffff"
     bordercolor="#666666"
     borderopacity="1"
     objecttolerance="10"
     gridtolerance="10"
     guidetolerance="10"
     inkscape:pageopacity="0"
     inkscape:pageshadow="2"
     inkscape:window-width="1855"
     inkscape:window-height="1056"
     id="namedview16"
     showgrid="false"
     inkscape:zoom="0.70710678"
     inkscape:cx="506.06524"
     inkscape:cy="390.868"
     inkscape:window-x="65"
     inkscape:window-y="24"
     inkscape:window-maximized="1"
     inkscape:current-layer="svg24"
     units="mm"
     width="300mm"
     fit-margin-top="0"
     fit-margin-left="0"
     fit-margin-right="0"
     fit-margin-bottom="0" />
  <metadata
     id="metadata30">
    <rdf:RDF>
      <cc:Work
         rdf:about="">
        <dc:format>image/svg+xml</dc:format>
        <dc:type
           rdf:resource="http://purl.org/dc/dcmitype/StillImage" />
        <dc:title></dc:title>
      </cc:Work>
    </rdf:RDF>
  </metadata>
  <defs
     id="defs28" />
  <g
     id="g4063"
     transform="translate(-1.6984848,-150.99207)">
    <rect
       y="150.99207"
       x="1.6984848"
       height="672"
       width="1058.9878"
       id="rect4061"
       style="fill:#ecf0f1;fill-opacity:1;stroke:none" />
    <g
       transform="translate(0,-178.74829)"
       id="g3230">
      <g
         transform="matrix(0.65935575,0,0,0.73396262,114.83801,240.13781)"
         style="font-size:21.09150124px"
         id="text6">
        <path
           d="m 58.291884,455.82344 c 12.971259,8.64751 38.553526,15.85378 61.973856,15.85378 57.28973,0 84.67358,-32.78853 84.67358,-70.26106 0,-35.67096 -20.53789,-55.48823 -61.61354,-71.34199 -33.50909,-12.97126 -48.281959,-24.141 -48.281959,-46.84071 0,-16.57438 12.610989,-36.39162 45.759769,-36.39162 21.97907,0 38.19319,6.84595 45.75976,11.53002 l 8.64752,-25.58223 c -10.44907,-6.12532 -28.82508,-11.89033 -53.32634,-11.89033 -47.200975,0 -78.548262,28.10446 -78.548262,65.93729 0,33.8694 24.501331,54.76761 64.135732,69.18012 32.78846,12.25063 45.75977,25.58225 45.75977,47.92165 0,24.50126 -18.73632,41.436 -50.80415,41.436 -21.61877,0 -41.796337,-6.84596 -55.848534,-15.85377 l -8.287202,26.30285"
           style="font-size:360.31311035px;fill:#47a5af;font-family:Myriad Pro"
           id="path3108"
           inkscape:connector-curvature="0" />
        <path
           d="m 252.602,260.89405 0,32.42818 -27.02349,0 0,24.14098 27.02349,0 0,95.12266 c 0,20.53783 3.60314,36.03132 12.25064,45.75976 7.56657,8.2872 19.45692,13.33159 34.22975,13.33159 12.25063,0 21.9791,-2.16188 28.10442,-4.32376 l -1.44125,-24.14098 c -4.68407,1.44126 -9.72847,2.16188 -18.37597,2.16188 -17.65533,0 -23.78067,-12.25066 -23.78067,-33.86943 l 0,-94.04172 45.39946,0 0,-24.14098 -45.39946,0 0,-41.79632 -30.98692,9.36814"
           style="font-size:360.31311035px;fill:#47a5af;font-family:Myriad Pro"
           id="path3110"
           inkscape:connector-curvature="0" />
        <path
           d="m 486.83365,360.70078 c 0,-34.59002 -12.97133,-70.98168 -66.29761,-70.98168 -21.97908,0 -43.23759,6.12533 -57.6501,15.13315 l 7.20626,21.25847 c 12.25063,-8.28719 29.18538,-12.97127 45.75977,-12.97127 35.67096,-0.36031 39.63444,25.94256 39.63444,39.99476 l 0,3.60313 c -67.37849,-0.36032 -104.85112,22.69977 -104.85112,64.85636 0,25.22189 18.01569,50.08352 53.32634,50.08352 24.86158,0 43.5979,-12.25066 53.32634,-25.94254 l 1.08094,0 2.52219,21.9791 28.46474,0 c -1.80156,-11.89033 -2.52219,-26.66319 -2.52219,-41.79633 l 0,-65.21667 m -30.62662,48.28196 c 0,2.8825 -0.36031,6.48564 -1.44125,10.08877 -5.04438,14.77282 -19.81724,29.18536 -42.87726,29.18536 -15.85376,0 -29.54567,-9.36816 -29.54567,-30.2663 0,-33.8694 39.27416,-39.99476 73.86418,-39.27413 l 0,30.2663"
           style="font-size:360.31311035px;fill:#47a5af;font-family:Myriad Pro"
           id="path3112"
           inkscape:connector-curvature="0" />
        <path
           d="m 538.15013,467.71378 31.70755,0 0,-92.96079 c 0,-5.04438 0.36032,-10.44908 1.08094,-14.77283 4.32375,-23.78065 20.17756,-40.35507 42.51695,-40.35507 4.32375,0 7.56658,0 10.80939,0.72062 l 0,-29.90598 c -2.8825,-0.36032 -5.4047,-0.72063 -8.64751,-0.72063 -21.25846,0 -40.71539,14.77286 -48.64227,38.19319 l -1.08094,0 -1.44125,-34.59006 -27.74411,0 c 1.08093,16.21407 1.44125,33.86945 1.44125,54.40728 l 0,119.98427"
           style="font-size:360.31311035px;fill:#47a5af;font-family:Myriad Pro"
           id="path3114"
           inkscape:connector-curvature="0" />
        <path
           d="m 671.3252,260.89405 0,32.42818 -27.02348,0 0,24.14098 27.02348,0 0,95.12266 c 0,20.53783 3.60314,36.03132 12.25065,45.75976 7.56656,8.2872 19.45692,13.33159 34.22974,13.33159 12.25064,0 21.97911,-2.16188 28.10443,-4.32376 l -1.44126,-24.14098 c -4.68406,1.44126 -9.72846,2.16188 -18.37597,2.16188 -17.65532,0 -23.78066,-12.25066 -23.78066,-33.86943 l 0,-94.04172 45.39945,0 0,-24.14098 -45.39945,0 0,-41.79632 -30.98693,9.36814"
           style="font-size:360.31311035px;fill:#47a5af;font-family:Myriad Pro"
           id="path3116"
           inkscape:connector-curvature="0" />
      </g>
      <g
         transform="matrix(0.67257631,0,0,0.7195354,114.83801,240.13781)"
         style="font-size:25.85032463px;font-weight:600;-inkscape-font-specification:Myriad Pro Semi-Bold"
         id="text14">
        <path
           d="m 535.32956,554.17804 9.67125,0 0,-44.89663 15.25384,0 0,-8.09869 -40.02168,0 0,8.09869 15.09659,0 0,44.89663"
           style="font-size:78.62806702px;fill:#6d6e70;font-family:Myriad Pro;-inkscape-font-specification:Myriad Pro Semi-Bold"
           id="path3119"
           inkscape:connector-curvature="0" />
        <path
           d="m 586.83462,500.23919 c -14.93931,0 -25.23961,11.47971 -25.23961,27.83433 0,15.48972 9.43539,26.96943 24.45333,26.96943 14.54618,0 25.31824,-10.14304 25.31824,-27.91297 0,-15.1752 -9.12087,-26.89079 -24.53196,-26.89079 m -0.31451,7.78417 c 9.67124,0 14.62482,9.43538 14.62482,19.42114 0,11.08654 -5.26809,19.81427 -14.62482,19.81427 -9.2781,0 -14.70345,-8.57047 -14.70345,-19.42113 0,-10.92929 5.11084,-19.81428 14.70345,-19.81428"
           style="font-size:78.62806702px;fill:#6d6e70;font-family:Myriad Pro;-inkscape-font-specification:Myriad Pro Semi-Bold"
           id="path3121"
           inkscape:connector-curvature="0" />
        <path
           d="m 656.03715,545.05718 c -2.59473,1.1008 -6.68339,1.88708 -10.53616,1.88708 -11.71557,0 -18.4776,-7.39105 -18.4776,-19.10662 0,-12.73774 7.78419,-19.49976 18.55622,-19.49976 4.32454,0 7.86281,0.94353 10.37891,2.04433 l 2.04433,-7.70555 c -1.9657,-1.02217 -6.44751,-2.35885 -12.81638,-2.35885 -16.19736,0 -28.38473,10.53618 -28.38473,27.9916 0,16.19736 10.22167,26.73354 27.04806,26.73354 6.44749,0 11.4797,-1.25805 13.75991,-2.35884 l -1.57256,-7.62693"
           style="font-size:78.62806702px;fill:#6d6e70;font-family:Myriad Pro;-inkscape-font-specification:Myriad Pro Semi-Bold"
           id="path3123"
           inkscape:connector-curvature="0" />
        <path
           d="m 693.83391,539.16008 4.79631,15.01796 10.45753,0 -17.21954,-52.99532 -12.34461,0 -16.98366,52.99532 9.98576,0 4.56043,-15.01796 16.74778,0 m -15.17522,-7.31241 4.08866,-13.05226 c 0.86491,-3.14512 1.72982,-6.84065 2.5161,-9.90714 l 0.15726,0 c 0.78627,3.06649 1.65119,6.68339 2.67335,9.90714 l 4.16729,13.05226 -13.60266,0"
           style="font-size:78.62806702px;fill:#6d6e70;font-family:Myriad Pro;-inkscape-font-specification:Myriad Pro Semi-Bold"
           id="path3125"
           inkscape:connector-curvature="0" />
        <path
           d="m 725.42028,554.17804 0,-18.94936 c 0,-8.72771 -0.15726,-15.72562 -0.5504,-22.56626 l 0.31451,-0.0786 c 2.59473,5.97573 6.05437,12.42324 9.43537,18.24171 l 13.83854,23.35254 10.06439,0 0,-52.99532 -8.9636,0 0,18.4776 c 0,8.09868 0.15726,14.93934 0.86491,22.01586 l -0.15725,0 c -2.43747,-5.73985 -5.5826,-11.87285 -9.04223,-17.76995 l -13.68128,-22.72351 -11.08656,0 0,52.99532 8.9636,0"
           style="font-size:78.62806702px;fill:#6d6e70;font-family:Myriad Pro;-inkscape-font-specification:Myriad Pro Semi-Bold"
           id="path3127"
           inkscape:connector-curvature="0" />
        <path
           d="m 779.8137,554.17804 9.67125,0 0,-44.89663 15.25385,0 0,-8.09869 -40.02169,0 0,8.09869 15.09659,0 0,44.89663"
           style="font-size:78.62806702px;fill:#6d6e70;font-family:Myriad Pro;-inkscape-font-specification:Myriad Pro Semi-Bold"
           id="path3129"
           inkscape:connector-curvature="0" />
        <path
           d="m 810.98112,501.18272 0,52.99532 9.67125,0 0,-52.99532 -9.67125,0"
           style="font-size:78.62806702px;fill:#6d6e70;font-family:Myriad Pro;-inkscape-font-specification:Myriad Pro Semi-Bold"
           id="path3131"
           inkscape:connector-curvature="0" />
        <path
           d="m 840.59812,554.17804 0,-18.94936 c 0,-8.72771 -0.15726,-15.72562 -0.5504,-22.56626 l 0.31451,-0.0786 c 2.59473,5.97573 6.05437,12.42324 9.43537,18.24171 l 13.83854,23.35254 10.06439,0 0,-52.99532 -8.96359,0 0,18.4776 c 0,8.09868 0.15725,14.93934 0.8649,22.01586 l -0.15725,0 c -2.43747,-5.73985 -5.5826,-11.87285 -9.04223,-17.76995 l -13.68128,-22.72351 -11.08656,0 0,52.99532 8.9636,0"
           style="font-size:78.62806702px;fill:#6d6e70;font-family:Myriad Pro;-inkscape-font-specification:Myriad Pro Semi-Bold"
           id="path3133"
           inkscape:connector-curvature="0" />
        <path
           d="m 882.48968,551.66194 c 2.90924,1.80845 8.72772,3.38101 14.38894,3.38101 13.60264,0 20.05015,-7.39105 20.05015,-15.9615 0,-7.62691 -4.40318,-12.26598 -13.60265,-15.72561 -7.07652,-2.75198 -10.14302,-4.63906 -10.14302,-8.72772 0,-3.14512 2.59473,-6.36887 8.72771,-6.36887 4.95357,0 8.64909,1.49393 10.61479,2.5161 l 2.28022,-7.78418 c -2.75198,-1.41531 -6.91928,-2.67336 -12.65912,-2.67336 -11.55832,0 -18.79211,6.52614 -18.79211,15.25385 0,7.62691 5.5826,12.26598 14.38894,15.4111 6.68337,2.43747 9.35674,4.79632 9.35674,8.80634 0,4.32454 -3.45965,7.23379 -9.59263,7.23379 -4.95356,0 -9.74988,-1.57257 -12.81637,-3.38101 l -2.20159,8.02006"
           style="font-size:78.62806702px;fill:#6d6e70;font-family:Myriad Pro;-inkscape-font-specification:Myriad Pro Semi-Bold"
           id="path3135"
           inkscape:connector-curvature="0" />
      </g>
      <g
         transform="matrix(0.69196808,0,0,0.69937108,114.83801,240.13781)"
         style="font-size:21.83086014px;fill:#f3702a;fill-opacity:1"
         id="text10">
        <path
           d="m 886.15649,308.28664 -45.8721,0 0,109.6455 c 0,5.22121 -0.74589,10.44243 -2.61061,14.17187 -4.47532,11.93419 -16.40955,24.61429 -35.05672,24.61429 -24.24133,0 -33.9379,-19.39311 -33.9379,-49.60153 l 0,-98.83013 -45.87209,0 0,106.66195 c 0,59.29802 30.20848,79.0641 63.02751,79.0641 32.81903,0 50.72038,-18.64721 58.55219,-31.32728 l 1.11883,0 2.23767,27.2249 39.90499,0 c -0.74588,-14.91774 -1.49177,-32.81908 -1.49177,-54.44981 l 0,-127.17386"
           style="font-size:372.94387817px;font-weight:600;letter-spacing:5.97348833px;word-spacing:12.16573334px;fill:#f3702a;font-family:Myriad Pro;-inkscape-font-specification:Myriad Pro Semi-Bold"
           id="path3103"
           inkscape:connector-curvature="0" />
        <path
           d="m 941.49261,563.7532 45.87209,0 0,-93.98186 0.74589,0 c 9.32359,14.5448 28.34371,24.24135 51.09331,24.24135 41.3967,0 82.7935,-31.70029 82.7935,-97.33835 0,-56.68741 -34.6838,-92.49008 -76.4535,-92.49008 -27.5978,0 -48.85561,11.56128 -62.28158,32.07317 l -0.74589,0 -2.23766,-27.97079 -40.27794,0 c 0.74589,17.1554 1.49178,36.54852 1.49178,60.41691 l 0,195.04965 M 987.3647,385.85897 c 0,-3.72944 0.74589,-7.83183 1.49178,-11.56126 4.84827,-20.13895 22.37662,-33.9379 41.39682,-33.9379 29.4625,0 45.1262,26.10611 45.1262,58.17925 0,35.80258 -17.1555,60.04396 -46.2451,60.04396 -19.766,0 -35.8026,-13.426 -40.65086,-32.07317 -0.74589,-4.10238 -1.11884,-8.20477 -1.11884,-12.68009 l 0,-27.97079"
           style="font-size:372.94387817px;font-weight:600;letter-spacing:5.97348833px;word-spacing:12.16573334px;fill:#f3702a;font-family:Myriad Pro;-inkscape-font-specification:Myriad Pro Semi-Bold"
           id="path3105"
           inkscape:connector-curvature="0" />
      </g>
      <g
         id="g3062"
         transform="matrix(0.69565974,0,0,0.69565974,-59.148893,317.85531)">
        <path
           inkscape:connector-curvature="0"
           d="m 1285.6111,209.73938 c 37.3226,0 67.4459,34.78855 67.4459,77.8912 0,42.88398 -30.1233,77.67253 -67.4459,77.67253 -37.133,0 -67.4458,-34.78855 -67.4458,-77.67253 0,-43.10265 30.3128,-77.8912 67.4458,-77.8912 z"
           style="fill:#f3702a;fill-opacity:1;fill-rule:evenodd"
           id="path16" />
        <path
           inkscape:connector-curvature="0"
           d="m 1257.3782,244.09026 61.3832,1.09398 0.9473,70.67107 -0.1893,-0.43767 0,0.21882 -16.6721,0 0,-36.97648 -45.2796,52.29223 -13.2618,-15.31575 45.6585,-52.29223 -32.5862,0 z"
           style="fill:#ffffff;fill-rule:evenodd"
           id="path18" />
      </g>
    </g>
    <g
       id="g4056">
      <path
         style="fill:#47a5af;fill-opacity:1;stroke:none"
         d="m 5.7660737,569.52523 504.5314663,0 135,105.23763 -135,105.22407 -504.5314663,0 z"
         id="rect3277"
         inkscape:connector-curvature="0"
         sodipodi:nodetypes="cccccc" />
      <text
         xml:space="preserve"
         style="font-size:91.93225098px;font-style:normal;font-weight:normal;line-height:125%;letter-spacing:0px;word-spacing:0px;fill:#000000;fill-opacity:1;stroke:none;font-family:Sans"
         x="66.74189"
         y="707.85168"
         id="text4048"
         sodipodi:linespacing="125%"><tspan
           sodipodi:role="line"
           id="tspan4050"
           x="66.74189"
           y="707.85168"
           style="font-style:normal;font-variant:normal;font-weight:normal;font-stretch:normal;fill:#ffffff;fill-opacity:1;font-family:Designosaur;-inkscape-font-specification:Designosaur">JUNTE-SE A</tspan></text>
    </g>
    <text
       sodipodi:linespacing="125%"
       id="text4052"
       y="742.64307"
       x="670.15332"
       style="font-size:185.10121155px;font-style:normal;font-weight:normal;line-height:125%;letter-spacing:0px;word-spacing:0px;fill:#f3702a;fill-opacity:1;stroke:none;font-family:Sans"
       xml:space="preserve"><tspan
         style="font-style:normal;font-variant:normal;font-weight:normal;font-stretch:normal;fill:#f3702a;fill-opacity:1;font-family:Designosaur;-inkscape-font-specification:Designosaur"
         y="742.64307"
         x="670.15332"
         id="tspan4054"
         sodipodi:role="line">NÓS</tspan></text>
  </g>
</svg>
